<svg width="16" height="16" viewBox="0 0 16 16" fill="none" xmlns="http://www.w3.org/2000/svg">
<path d="M15.992 5.38055L15.321 9.22983C15.2383 9.65504 14.8995 9.91359 14.5088 9.91844H4.72667L4.53245 11.0132H13.8555C14.3464 11.0505 14.6794 11.3983 14.6854 11.8431C14.6497 12.333 14.3019 12.6669 13.8555 12.673H3.54364C2.98595 12.6228 2.6534 12.1782 2.71375 11.6842L3.15517 9.28276L2.4842 2.5377L0.577225 1.93739C0.111212 1.75236 -0.0789881 1.33079 0.0298519 0.895616C0.210825 0.442083 0.644465 0.23487 1.07163 0.348243L3.50832 1.12516C3.83659 1.24822 4.02543 1.51692 4.07335 1.83146L4.2146 3.1734L15.268 4.4094C15.7759 4.51942 16.0516 4.9217 15.992 5.38055ZM6.07029 14.4155C6.07029 15.1152 5.50309 15.6824 4.80339 15.6824C4.10369 15.6824 3.53649 15.1152 3.53649 14.4155C3.53649 13.7158 4.10371 13.1486 4.80339 13.1486C5.50308 13.1486 6.07029 13.7158 6.07029 14.4155ZM13.6337 14.4155C13.6337 15.1152 13.0664 15.6824 12.3667 15.6824C11.667 15.6824 11.0998 15.1152 11.0998 14.4155C11.0998 13.7158 11.667 13.1486 12.3667 13.1486C13.0664 13.1486 13.6337 13.7158 13.6337 14.4155Z" fill="white"/>
</svg>
