<svg width="16" height="16" viewBox="0 0 16 16" fill="none" xmlns="http://www.w3.org/2000/svg">
<path id="Vector" d="M15.992 5.3805L15.321 9.22978C15.2383 9.65499 14.8995 9.91354 14.5088 9.9184H4.72667L4.53245 11.0131H13.8555C14.3464 11.0504 14.6794 11.3982 14.6854 11.843C14.6497 12.3329 14.3019 12.6668 13.8555 12.6729H3.54364C2.98595 12.6227 2.6534 12.1782 2.71375 11.6841L3.15517 9.28271L2.4842 2.53765L0.577225 1.93734C0.111212 1.75231 -0.0789881 1.33074 0.0298519 0.895568C0.210825 0.442034 0.644465 0.234821 1.07163 0.348194L3.50832 1.12511C3.83659 1.24817 4.02543 1.51687 4.07335 1.83141L4.2146 3.17335L15.268 4.40935C15.7759 4.51937 16.0516 4.92165 15.992 5.3805ZM6.07029 14.4154C6.07029 15.1151 5.50309 15.6823 4.80339 15.6823C4.10369 15.6823 3.53649 15.1151 3.53649 14.4154C3.53649 13.7157 4.10371 13.1485 4.80339 13.1485C5.50308 13.1485 6.07029 13.7157 6.07029 14.4154ZM13.6337 14.4154C13.6337 15.1151 13.0664 15.6823 12.3667 15.6823C11.667 15.6823 11.0998 15.1151 11.0998 14.4154C11.0998 13.7157 11.667 13.1485 12.3667 13.1485C13.0664 13.1485 13.6337 13.7157 13.6337 14.4154Z" fill="black"/>
</svg>
