<svg width="18" height="14" viewBox="0 0 18 14" fill="none" xmlns="http://www.w3.org/2000/svg">
<path d="M2.15956 3.11111C3.01867 3.11111 3.71511 2.41467 3.71511 1.55556C3.71511 0.696446 3.01867 0 2.15956 0C1.30045 0 0.604004 0.696446 0.604004 1.55556C0.604004 2.41467 1.30045 3.11111 2.15956 3.11111Z" fill="#343434"/>
<path d="M6.82623 0C5.96712 0 5.27067 0.696446 5.27067 1.55556C5.27067 2.41467 5.96712 3.11111 6.82623 3.11111H15.5C16.3591 3.11111 17.0556 2.41467 17.0556 1.55556C17.0556 0.696446 16.3591 0 15.5 0H6.82623Z" fill="#343434"/>
<path d="M6.82623 5.44444C5.96712 5.44444 5.27067 6.14089 5.27067 7C5.27067 7.85911 5.96712 8.55556 6.82623 8.55556H15.5C16.3591 8.55556 17.0556 7.85911 17.0556 7C17.0556 6.14089 16.3591 5.44444 15.5 5.44444H6.82623Z" fill="#343434"/>
<path d="M5.27067 12.4444C5.27067 11.5853 5.96712 10.8889 6.82623 10.8889H15.5C16.3591 10.8889 17.0556 11.5853 17.0556 12.4444C17.0556 13.3036 16.3591 14 15.5 14H6.82623C5.96712 14 5.27067 13.3036 5.27067 12.4444Z" fill="#343434"/>
<path d="M3.71511 7C3.71511 7.85911 3.01867 8.55556 2.15956 8.55556C1.30045 8.55556 0.604004 7.85911 0.604004 7C0.604004 6.14089 1.30045 5.44444 2.15956 5.44444C3.01867 5.44444 3.71511 6.14089 3.71511 7Z" fill="#343434"/>
<path d="M2.15956 14C3.01867 14 3.71511 13.3036 3.71511 12.4444C3.71511 11.5853 3.01867 10.8889 2.15956 10.8889C1.30045 10.8889 0.604004 11.5853 0.604004 12.4444C0.604004 13.3036 1.30045 14 2.15956 14Z" fill="#343434"/>
</svg>
