<svg width="64" height="48" viewBox="0 0 64 48" fill="none" xmlns="http://www.w3.org/2000/svg">
<rect width="64" height="48" rx="6" fill="#FDBD1C"/>
<path d="M39.992 21.3805L39.321 25.2298C39.2383 25.655 38.8995 25.9135 38.5088 25.9184H28.7267L28.5325 27.0131H37.8555C38.3464 27.0504 38.6794 27.3982 38.6854 27.843C38.6497 28.3329 38.3019 28.6668 37.8555 28.6729H27.5436C26.9859 28.6227 26.6534 28.1782 26.7137 27.6841L27.1552 25.2827L26.4842 18.5376L24.5772 17.9373C24.1112 17.7523 23.921 17.3307 24.0299 16.8956C24.2108 16.442 24.6445 16.2348 25.0716 16.3482L27.5083 17.1251C27.8366 17.2482 28.0254 17.5169 28.0733 17.8314L28.2146 19.1733L39.268 20.4093C39.7759 20.5194 40.0516 20.9216 39.992 21.3805ZM30.0703 30.4154C30.0703 31.1151 29.5031 31.6823 28.8034 31.6823C28.1037 31.6823 27.5365 31.1151 27.5365 30.4154C27.5365 29.7157 28.1037 29.1485 28.8034 29.1485C29.5031 29.1485 30.0703 29.7157 30.0703 30.4154ZM37.6337 30.4154C37.6337 31.1151 37.0664 31.6823 36.3667 31.6823C35.667 31.6823 35.0998 31.1151 35.0998 30.4154C35.0998 29.7157 35.667 29.1485 36.3667 29.1485C37.0664 29.1485 37.6337 29.7157 37.6337 30.4154Z" fill="white"/>
</svg>
