<svg width="20" height="5" viewBox="0 0 20 5" fill="none" xmlns="http://www.w3.org/2000/svg">
<path d="M4 2.5C4 3.60457 3.10449 4.5 2 4.5C0.895508 4.5 0 3.60457 0 2.5C0 1.39543 0.895508 0.5 2 0.5C3.10449 0.5 4 1.39543 4 2.5Z" fill="black"/>
<path d="M12 2.5C12 3.60457 11.1045 4.5 10 4.5C8.89551 4.5 8 3.60457 8 2.5C8 1.39543 8.89551 0.5 10 0.5C11.1045 0.5 12 1.39543 12 2.5Z" fill="black"/>
<path d="M18 4.5C19.1045 4.5 20 3.60457 20 2.5C20 1.39543 19.1045 0.5 18 0.5C16.8955 0.5 16 1.39543 16 2.5C16 3.60457 16.8955 4.5 18 4.5Z" fill="black"/>
</svg>
