<svg width="9" height="18" viewBox="0 0 9 18" fill="none" xmlns="http://www.w3.org/2000/svg">
<path d="M8.59697 0.571309L6.45402 0.567871C4.04648 0.567871 2.49063 2.16414 2.49063 4.6348V6.50993H0.335982C0.149795 6.50993 -0.000976562 6.66087 -0.000976562 6.84706V9.56391C-0.000976562 9.75009 0.149967 9.90087 0.335982 9.90087H2.49063V16.7563C2.49063 16.9425 2.6414 17.0933 2.82759 17.0933H5.63879C5.82497 17.0933 5.97574 16.9423 5.97574 16.7563V9.90087H8.49503C8.68121 9.90087 8.83199 9.75009 8.83199 9.56391L8.83302 6.84706C8.83302 6.75766 8.79743 6.67205 8.73434 6.60878C8.67124 6.54551 8.58528 6.50993 8.49589 6.50993H5.97574V4.92036C5.97574 4.15635 6.1578 3.7685 7.15304 3.7685L8.59663 3.76798C8.78265 3.76798 8.93342 3.61704 8.93342 3.43102V0.908272C8.93342 0.722427 8.78282 0.571653 8.59697 0.571309Z" fill="#A5A5A5"/>
</svg>
