<svg width="16" height="17" viewBox="0 0 16 17" fill="none" xmlns="http://www.w3.org/2000/svg">
<path d="M10.6441 8.06609C10.6441 9.53737 9.45179 10.7299 7.98051 10.7299C6.50966 10.7299 5.31687 9.53737 5.31687 8.06609C5.31687 6.59503 6.50966 5.40246 7.98051 5.40246C9.45179 5.40246 10.6441 6.59503 10.6441 8.06609Z" fill="#A5A5A5"/>
<path fill-rule="evenodd" clip-rule="evenodd" d="M15.55 2.84147C15.7873 3.47035 15.9129 4.13539 15.922 4.80715C15.971 5.65215 15.9714 5.92847 15.9731 8.06783V8.09706C15.9731 10.2641 15.9619 10.5346 15.9238 11.3878C15.9103 12.0522 15.7852 12.7069 15.5522 13.3277C15.3464 13.8579 15.0324 14.3395 14.6301 14.7416C14.2281 15.1438 13.7465 15.4576 13.2164 15.6633C12.5957 15.8963 11.94 16.0219 11.2774 16.0349C10.4302 16.0847 10.1526 16.0847 7.98657 16.0847C5.82058 16.0847 5.54989 16.073 4.69579 16.0349C4.03183 16.013 3.37654 15.8781 2.75762 15.6358C2.22749 15.4305 1.74544 15.1169 1.34351 14.7148C0.941151 14.3129 0.627145 13.8315 0.421417 13.3011C0.18797 12.6794 0.0628011 12.0247 0.0498078 11.3612C0 10.5134 0 10.2366 0 8.07042C0 5.90443 0.011694 5.63396 0.0498078 4.77964C0.062368 4.1172 0.18797 3.46169 0.421417 2.84147C0.626712 2.31113 0.940285 1.82951 1.34265 1.42736C1.74457 1.02522 2.22663 0.711429 2.75675 0.506134C3.37697 0.27312 4.0327 0.147301 4.69493 0.133442C5.54209 0.0847168 5.81972 0.0847168 7.98571 0.0847168C9.34048 0.0847168 9.95376 0.0888314 10.4319 0.101392C10.7182 0.108754 10.956 0.119149 11.2756 0.133442C11.9383 0.147085 12.594 0.27312 13.2147 0.506134C13.4247 0.587559 13.6274 0.686092 13.8206 0.800433C14.1142 0.974328 14.3858 1.18504 14.6288 1.42758C14.8336 1.63244 15.0155 1.85787 15.1719 2.09977C15.3222 2.333 15.4491 2.58139 15.55 2.84147ZM3.87981 8.06609C3.87981 10.3315 5.7149 12.1668 7.98051 12.1668C9.06805 12.1668 10.111 11.7348 10.8802 10.9656C11.649 10.1966 12.0812 9.15364 12.0812 8.06609C12.0812 6.97855 11.649 5.9354 10.8802 5.16641C10.111 4.39742 9.06805 3.96539 7.98051 3.96539C5.7149 3.96539 3.87981 5.8007 3.87981 8.06609ZM11.2882 3.81381C11.2882 4.34242 11.7148 4.7699 12.2445 4.7699C12.772 4.7699 13.1995 4.34242 13.1995 3.81381C13.1995 3.6882 13.1748 3.5639 13.1267 3.44804C13.0787 3.33197 13.0085 3.22672 12.9197 3.13794C12.8309 3.04915 12.7257 2.97877 12.6096 2.93069C12.4935 2.88262 12.3692 2.85793 12.2441 2.85793C12.1185 2.85793 11.9942 2.88262 11.8781 2.93069C11.762 2.97877 11.6568 3.04915 11.568 3.13794C11.4792 3.22672 11.409 3.33197 11.3609 3.44804C11.3129 3.5639 11.2882 3.6882 11.2882 3.81381Z" fill="#A5A5A5"/>
</svg>
