<svg width="20" height="12" viewBox="0 0 20 12" fill="none" xmlns="http://www.w3.org/2000/svg">
<path d="M19.8939 10.39C19.8697 10.3378 19.8471 10.2945 19.8262 10.2598C19.4792 9.63487 18.8161 8.86778 17.8372 7.95834L17.8166 7.93751L17.8062 7.9273L17.7957 7.91683H17.7852C17.341 7.49335 17.0597 7.20861 16.9419 7.06283C16.7263 6.78513 16.678 6.50404 16.7959 6.21922C16.8791 6.00404 17.1917 5.54959 17.733 4.85526C18.0178 4.48729 18.2433 4.19238 18.4098 3.97019C19.6109 2.37342 20.1316 1.35307 19.9719 0.908725L19.9098 0.804888C19.8681 0.742374 19.7606 0.685185 19.5872 0.63303C19.4134 0.580984 19.1914 0.572376 18.9206 0.607062L15.9216 0.627778C15.8731 0.610563 15.8037 0.612168 15.7133 0.63303C15.623 0.653892 15.5779 0.66436 15.5779 0.66436L15.5257 0.690438L15.4843 0.721767C15.4495 0.742484 15.4114 0.77892 15.3697 0.831003C15.3282 0.882903 15.2935 0.943811 15.2658 1.01322C14.9393 1.85322 14.5681 2.6342 14.1515 3.35614C13.8946 3.78662 13.6587 4.1597 13.4432 4.47558C13.2281 4.79136 13.0476 5.02402 12.9019 5.17316C12.756 5.32244 12.6244 5.44203 12.5061 5.53237C12.388 5.62275 12.2979 5.66094 12.2355 5.64697C12.173 5.633 12.1141 5.61914 12.0583 5.60528C11.9612 5.54277 11.883 5.45775 11.8241 5.35016C11.765 5.24256 11.7252 5.10714 11.7043 4.944C11.6836 4.78075 11.6714 4.64033 11.6679 4.52227C11.6646 4.40435 11.6661 4.23757 11.6732 4.02238C11.6804 3.80708 11.6836 3.66141 11.6836 3.58504C11.6836 3.3212 11.6888 3.03485 11.6991 2.72593C11.7096 2.41701 11.7181 2.17224 11.7252 1.99192C11.7323 1.81142 11.7356 1.62045 11.7356 1.41912C11.7356 1.21779 11.7233 1.0599 11.6991 0.945307C11.6752 0.830856 11.6384 0.719761 11.59 0.612058C11.5413 0.504464 11.4701 0.421234 11.3766 0.362149C11.2829 0.303137 11.1664 0.256306 11.0277 0.221511C10.6598 0.138245 10.1912 0.0932012 9.62183 0.0861984C8.33067 0.0723389 7.50103 0.155715 7.1331 0.336217C6.98732 0.412481 6.8554 0.516683 6.73745 0.648494C6.61245 0.801277 6.59502 0.884654 6.68525 0.898367C7.10184 0.960772 7.39676 1.11005 7.57033 1.34607L7.63288 1.47113C7.68153 1.56136 7.73012 1.72111 7.77873 1.95016C7.82728 2.17921 7.85861 2.43258 7.87239 2.71014C7.90704 3.21699 7.90704 3.65087 7.87239 4.0118C7.83764 4.37288 7.80481 4.65397 7.77348 4.8553C7.74215 5.05663 7.69532 5.21977 7.63288 5.34469C7.57033 5.46964 7.52872 5.54601 7.50785 5.57373C7.48703 5.60145 7.46967 5.61892 7.45588 5.62578C7.36565 5.66036 7.2718 5.67797 7.17468 5.67797C7.0774 5.67797 6.95945 5.62932 6.82064 5.53208C6.68186 5.43485 6.53783 5.30128 6.38855 5.13118C6.23927 4.96103 6.07091 4.72327 5.88341 4.41785C5.69605 4.11243 5.50165 3.75146 5.30032 3.33495L5.13375 3.03288C5.02962 2.83856 4.88738 2.5556 4.70688 2.18428C4.52627 1.8128 4.36663 1.45348 4.22785 1.10637C4.17237 0.960589 4.08904 0.849604 3.97798 0.77323L3.92586 0.7419C3.89121 0.714181 3.83559 0.684748 3.75929 0.653381C3.68288 0.622051 3.60315 0.599584 3.51977 0.585761L0.66657 0.606478C0.37501 0.606478 0.177183 0.672529 0.0730178 0.80445L0.0313298 0.866854C0.0105041 0.901613 0 0.957124 0 1.03353C0 1.10991 0.0208258 1.20364 0.0625138 1.31463C0.479029 2.29355 0.93198 3.23764 1.42137 4.14704C1.91075 5.05645 2.33602 5.78899 2.69692 6.34403C3.05789 6.89947 3.42582 7.42369 3.80072 7.91643C4.17562 8.40936 4.42378 8.72525 4.5452 8.86402C4.66676 9.00306 4.76224 9.107 4.83165 9.17641L5.09203 9.42628C5.25863 9.59293 5.50329 9.7925 5.82611 10.025C6.149 10.2577 6.50646 10.4867 6.89869 10.7125C7.29099 10.938 7.74737 11.1219 8.26808 11.2642C8.78873 11.4066 9.29548 11.4638 9.7884 11.4362H10.9859C11.2288 11.4152 11.4128 11.3389 11.5379 11.2071L11.5793 11.1549C11.6072 11.1134 11.6333 11.0491 11.6573 10.9624C11.6817 10.8757 11.6938 10.7801 11.6938 10.6761C11.6867 10.3776 11.7094 10.1086 11.7613 9.86917C11.8132 9.62976 11.8724 9.44926 11.9386 9.3277C12.0047 9.20624 12.0793 9.10376 12.1624 9.02067C12.2456 8.93741 12.3049 8.88696 12.3397 8.8696C12.3743 8.85213 12.4019 8.84028 12.4227 8.83317C12.5893 8.77766 12.7854 8.83142 13.0112 8.9947C13.2369 9.15784 13.4485 9.35928 13.6465 9.59869C13.8444 9.83831 14.0821 10.1072 14.3597 10.4056C14.6375 10.7042 14.8804 10.9261 15.0886 11.0721L15.2968 11.1971C15.4358 11.2804 15.6163 11.3568 15.8385 11.4262C16.0603 11.4956 16.2546 11.5129 16.4215 11.4783L19.0872 11.4367C19.3508 11.4367 19.556 11.393 19.7015 11.3064C19.8473 11.2196 19.9339 11.124 19.9619 11.0201C19.9897 10.916 19.9912 10.7979 19.9672 10.6658C19.9425 10.5341 19.9181 10.442 19.8939 10.39Z" fill="#A5A5A5"/>
</svg>
