<svg width="13" height="16" viewBox="0 0 13 16" fill="none" xmlns="http://www.w3.org/2000/svg">
<path d="M6.26345 8.05531C8.09431 8.05531 9.57936 6.25205 9.57936 4.02768C9.57941 1.80326 9.09134 0 6.26345 0C3.43498 0 2.94727 1.80326 2.94727 4.02768C2.94731 6.25205 4.43227 8.05531 6.26345 8.05531Z" fill="black"/>
<path d="M0.000636339 13.7343C0.000117052 13.5985 -0.000488782 13.6959 0.000636339 13.7343V13.7343Z" fill="black"/>
<path d="M12.5264 13.8403C12.528 13.8031 12.527 13.5825 12.5264 13.8403V13.8403Z" fill="black"/>
<path d="M12.5193 13.5715C12.4574 9.69659 11.9519 8.59249 8.07878 7.89359L6.26357 10.9537L4.44733 7.89359C0.617514 8.58488 0.0802024 9.67257 0.00961957 13.4457C0.0042101 13.7537 0.00165673 13.7701 0.000488281 13.7343C0.000747936 13.8012 0.00109414 13.9252 0.00109414 14.1412C0.00109414 14.1412 0.923171 16 6.26357 16C11.6036 16 12.5259 14.1412 12.5259 14.1412C12.5259 14.0024 12.526 13.9057 12.5261 13.8403C12.5251 13.8624 12.5232 13.8194 12.5193 13.5715Z" fill="black"/>
</svg>
